# xmcd CD database file
#
# Track frame offsets:
#	150
#	19925
#	31109
#	38782
#	52362
#	76091
#	85744
#	96259
#	114559
#	132031
#	140327
#	150691
#
# Disc length: 4649 seconds
#
# Revision: 0
# Processed by: cddbd v1.5.1PL0 Copyright (c) Steve Scherf et al.
# Submitted via: CDex 1.51
#
DISCID=9212270c
DTITLE=S.E.N.S - Fine
DYEAR=1999
DGENRE=New Age
TTITLE0=Fine
TTITLE1=Happiness #2
TTITLE2=Alegretto
TTITLE3=Naze~Instrumental
TTITLE4=Lunar Dream
TTITLE5=Fine #2
TTITLE6=Wonder Drug
TTITLE7=Calm
TTITLE8=Lunar Dream~Guitar
TTITLE9=Fine~String Quartet
TTITLE10=Fine~Piano
TTITLE11=Happiness
EXTD=YEAR: 1999
EXTT0=
EXTT1=
EXTT2=
EXTT3=
EXTT4=
EXTT5=
EXTT6=
EXTT7=
EXTT8=
EXTT9=
EXTT10=
EXTT11=
PLAYORDER=
